<mxfile host="drawio-plugin" modified="2022-04-21T21:59:31.423Z" agent="5.0 (Windows NT 6.2; Win64; x64) AppleWebKit/537.36 (KHTML, like Gecko) Chrome/89.0.4389.114 Safari/537.36" etag="PQJpmjn7PX4lCw9cpwu1" version="15.5.4" type="embed"><diagram id="C5RBs43oDa-KdzZeNtuy" name="Page-1"><mxGraphModel dx="1313" dy="880" grid="1" gridSize="10" guides="1" tooltips="1" connect="1" arrows="1" fold="1" page="1" pageScale="1" pageWidth="827" pageHeight="1169" math="0" shadow="0"><root><mxCell id="WIyWlLk6GJQsqaUBKTNV-0"/><mxCell id="WIyWlLk6GJQsqaUBKTNV-1" parent="WIyWlLk6GJQsqaUBKTNV-0"/><mxCell id="1VhzgwtZWoN1v7OgEvMc-3" value="Extends" style="endArrow=block;endSize=16;endFill=0;html=1;rounded=0;exitX=0.5;exitY=0;exitDx=0;exitDy=0;entryX=0.5;entryY=1;entryDx=0;entryDy=0;" parent="WIyWlLk6GJQsqaUBKTNV-1" edge="1"><mxGeometry x="0.6228" y="-40" width="160" relative="1" as="geometry"><mxPoint x="275" y="700" as="sourcePoint"/><mxPoint x="390" y="585" as="targetPoint"/><Array as="points"><mxPoint x="275" y="650"/><mxPoint x="390" y="650"/></Array><mxPoint as="offset"/></mxGeometry></mxCell><mxCell id="1VhzgwtZWoN1v7OgEvMc-9" value="" style="endArrow=none;html=1;rounded=0;entryX=0.5;entryY=0;entryDx=0;entryDy=0;" parent="WIyWlLk6GJQsqaUBKTNV-1" edge="1"><mxGeometry width="50" height="50" relative="1" as="geometry"><mxPoint x="390" y="650" as="sourcePoint"/><mxPoint x="505" y="700" as="targetPoint"/><Array as="points"><mxPoint x="505" y="650"/></Array></mxGeometry></mxCell><mxCell id="1VhzgwtZWoN1v7OgEvMc-10" value="Encomenda" style="swimlane;fontStyle=1;align=center;verticalAlign=top;childLayout=stackLayout;horizontal=1;startSize=26;horizontalStack=0;resizeParent=1;resizeParentMax=0;resizeLast=0;collapsible=1;marginBottom=0;" parent="WIyWlLk6GJQsqaUBKTNV-1" vertex="1"><mxGeometry x="310" y="317" width="160" height="268" as="geometry"/></mxCell><mxCell id="0" value="- int: recompensa" style="text;strokeColor=none;fillColor=none;align=left;verticalAlign=top;spacingLeft=4;spacingRight=4;overflow=hidden;rotatable=0;points=[[0,0.5],[1,0.5]];portConstraint=eastwest;" vertex="1" parent="1VhzgwtZWoN1v7OgEvMc-10"><mxGeometry y="26" width="160" height="26" as="geometry"/></mxCell><mxCell id="1VhzgwtZWoN1v7OgEvMc-11" value="- int: id&#10;" style="text;strokeColor=none;fillColor=none;align=left;verticalAlign=top;spacingLeft=4;spacingRight=4;overflow=hidden;rotatable=0;points=[[0,0.5],[1,0.5]];portConstraint=eastwest;" parent="1VhzgwtZWoN1v7OgEvMc-10" vertex="1"><mxGeometry y="52" width="160" height="26" as="geometry"/></mxCell><mxCell id="1" value="- int: volume&#10;" style="text;strokeColor=none;fillColor=none;align=left;verticalAlign=top;spacingLeft=4;spacingRight=4;overflow=hidden;rotatable=0;points=[[0,0.5],[1,0.5]];portConstraint=eastwest;" vertex="1" parent="1VhzgwtZWoN1v7OgEvMc-10"><mxGeometry y="78" width="160" height="26" as="geometry"/></mxCell><mxCell id="2" value="- int: peso&#10;" style="text;strokeColor=none;fillColor=none;align=left;verticalAlign=top;spacingLeft=4;spacingRight=4;overflow=hidden;rotatable=0;points=[[0,0.5],[1,0.5]];portConstraint=eastwest;" vertex="1" parent="1VhzgwtZWoN1v7OgEvMc-10"><mxGeometry y="104" width="160" height="26" as="geometry"/></mxCell><mxCell id="1VhzgwtZWoN1v7OgEvMc-12" value="" style="line;strokeWidth=1;fillColor=none;align=left;verticalAlign=middle;spacingTop=-1;spacingLeft=3;spacingRight=3;rotatable=0;labelPosition=right;points=[];portConstraint=eastwest;" parent="1VhzgwtZWoN1v7OgEvMc-10" vertex="1"><mxGeometry y="130" width="160" height="8" as="geometry"/></mxCell><mxCell id="1VhzgwtZWoN1v7OgEvMc-13" value="+ int: getvolume&#10;+ int: getpeso&#10;+ void: setvolume&#10;+ void: setpeso&#10;+ void: setrecompensa&#10;+ int: getrecompensa&#10;+ int: getid" style="text;strokeColor=none;fillColor=none;align=left;verticalAlign=top;spacingLeft=4;spacingRight=4;overflow=hidden;rotatable=0;points=[[0,0.5],[1,0.5]];portConstraint=eastwest;spacingTop=0;spacing=10;" parent="1VhzgwtZWoN1v7OgEvMc-10" vertex="1"><mxGeometry y="138" width="160" height="130" as="geometry"/></mxCell><mxCell id="1VhzgwtZWoN1v7OgEvMc-15" value="Expresso" style="swimlane;fontStyle=1;align=center;verticalAlign=top;childLayout=stackLayout;horizontal=1;startSize=26;horizontalStack=0;resizeParent=1;resizeParentMax=0;resizeLast=0;collapsible=1;marginBottom=0;" parent="WIyWlLk6GJQsqaUBKTNV-1" vertex="1"><mxGeometry x="200" y="700" width="160" height="110" as="geometry"/></mxCell><mxCell id="1VhzgwtZWoN1v7OgEvMc-16" value="- int: tempo de entrega" style="text;strokeColor=none;fillColor=none;align=left;verticalAlign=top;spacingLeft=4;spacingRight=4;overflow=hidden;rotatable=0;points=[[0,0.5],[1,0.5]];portConstraint=eastwest;" parent="1VhzgwtZWoN1v7OgEvMc-15" vertex="1"><mxGeometry y="26" width="160" height="26" as="geometry"/></mxCell><mxCell id="1VhzgwtZWoN1v7OgEvMc-17" value="" style="line;strokeWidth=1;fillColor=none;align=left;verticalAlign=middle;spacingTop=-1;spacingLeft=3;spacingRight=3;rotatable=0;labelPosition=right;points=[];portConstraint=eastwest;" parent="1VhzgwtZWoN1v7OgEvMc-15" vertex="1"><mxGeometry y="52" width="160" height="8" as="geometry"/></mxCell><mxCell id="1VhzgwtZWoN1v7OgEvMc-18" value="+ int gettempoentrega&#10;+ void settempoentrega" style="text;strokeColor=none;fillColor=none;align=left;verticalAlign=top;spacingLeft=4;spacingRight=4;overflow=hidden;rotatable=0;points=[[0,0.5],[1,0.5]];portConstraint=eastwest;" parent="1VhzgwtZWoN1v7OgEvMc-15" vertex="1"><mxGeometry y="60" width="160" height="50" as="geometry"/></mxCell><mxCell id="1VhzgwtZWoN1v7OgEvMc-20" value="Normal" style="swimlane;fontStyle=1;align=center;verticalAlign=top;childLayout=stackLayout;horizontal=1;startSize=26;horizontalStack=0;resizeParent=1;resizeParentMax=0;resizeLast=0;collapsible=1;marginBottom=0;" parent="WIyWlLk6GJQsqaUBKTNV-1" vertex="1"><mxGeometry x="430" y="700" width="160" height="60" as="geometry"/></mxCell><mxCell id="1VhzgwtZWoN1v7OgEvMc-21" value="- Estafeta: estafeta" style="text;strokeColor=none;fillColor=none;align=left;verticalAlign=top;spacingLeft=4;spacingRight=4;overflow=hidden;rotatable=0;points=[[0,0.5],[1,0.5]];portConstraint=eastwest;" parent="1VhzgwtZWoN1v7OgEvMc-20" vertex="1"><mxGeometry y="26" width="160" height="26" as="geometry"/></mxCell><mxCell id="1VhzgwtZWoN1v7OgEvMc-22" value="" style="line;strokeWidth=1;fillColor=none;align=left;verticalAlign=middle;spacingTop=-1;spacingLeft=3;spacingRight=3;rotatable=0;labelPosition=right;points=[];portConstraint=eastwest;" parent="1VhzgwtZWoN1v7OgEvMc-20" vertex="1"><mxGeometry y="52" width="160" height="8" as="geometry"/></mxCell><mxCell id="1VhzgwtZWoN1v7OgEvMc-30" value="Estafeta" style="swimlane;fontStyle=1;align=center;verticalAlign=top;childLayout=stackLayout;horizontal=1;startSize=26;horizontalStack=0;resizeParent=1;resizeParentMax=0;resizeLast=0;collapsible=1;marginBottom=0;" parent="WIyWlLk6GJQsqaUBKTNV-1" vertex="1"><mxGeometry x="430" y="900" width="160" height="280" as="geometry"/></mxCell><mxCell id="1VhzgwtZWoN1v7OgEvMc-31" value="- int: id&#10;- string: matricula&#10;- int: pesomax&#10;- int: volmax&#10;- int: tarifa" style="text;strokeColor=none;fillColor=none;align=left;verticalAlign=top;spacingLeft=4;spacingRight=4;overflow=hidden;rotatable=0;points=[[0,0.5],[1,0.5]];portConstraint=eastwest;" parent="1VhzgwtZWoN1v7OgEvMc-30" vertex="1"><mxGeometry y="26" width="160" height="84" as="geometry"/></mxCell><mxCell id="1VhzgwtZWoN1v7OgEvMc-32" value="" style="line;strokeWidth=1;fillColor=none;align=left;verticalAlign=middle;spacingTop=-1;spacingLeft=3;spacingRight=3;rotatable=0;labelPosition=right;points=[];portConstraint=eastwest;" parent="1VhzgwtZWoN1v7OgEvMc-30" vertex="1"><mxGeometry y="110" width="160" height="8" as="geometry"/></mxCell><mxCell id="1VhzgwtZWoN1v7OgEvMc-33" value="- int: getid&#10;- string: getmatricula&#10;- int: getpesomax&#10;- int: getvolmax&#10;- int: gettarifa&#10;- void: setid&#10;- void: setmatricula&#10;- void: setpesomax&#10;- void: setvolmax&#10;- void: settarifa(int tarifa);" style="text;strokeColor=none;fillColor=none;align=left;verticalAlign=top;spacingLeft=4;spacingRight=4;overflow=hidden;rotatable=0;points=[[0,0.5],[1,0.5]];portConstraint=eastwest;" parent="1VhzgwtZWoN1v7OgEvMc-30" vertex="1"><mxGeometry y="118" width="160" height="162" as="geometry"/></mxCell><mxCell id="1VhzgwtZWoN1v7OgEvMc-35" value="" style="endArrow=none;html=1;rounded=0;exitX=0.5;exitY=0;exitDx=0;exitDy=0;entryX=0.5;entryY=1;entryDx=0;entryDy=0;" parent="WIyWlLk6GJQsqaUBKTNV-1" source="1VhzgwtZWoN1v7OgEvMc-30" target="1VhzgwtZWoN1v7OgEvMc-20" edge="1"><mxGeometry width="50" height="50" relative="1" as="geometry"><mxPoint x="500" y="860" as="sourcePoint"/><mxPoint x="508.8799999999999" y="786.364" as="targetPoint"/></mxGeometry></mxCell><mxCell id="1VhzgwtZWoN1v7OgEvMc-37" value="*" style="text;html=1;strokeColor=none;fillColor=none;align=center;verticalAlign=middle;whiteSpace=wrap;rounded=0;" parent="WIyWlLk6GJQsqaUBKTNV-1" vertex="1"><mxGeometry x="510" y="770" width="20" height="10" as="geometry"/></mxCell><mxCell id="1VhzgwtZWoN1v7OgEvMc-38" value="1" style="text;html=1;strokeColor=none;fillColor=none;align=center;verticalAlign=middle;whiteSpace=wrap;rounded=0;" parent="WIyWlLk6GJQsqaUBKTNV-1" vertex="1"><mxGeometry x="510" y="887" width="20" height="10" as="geometry"/></mxCell><mxCell id="1VhzgwtZWoN1v7OgEvMc-49" value="Armazém" style="swimlane;fontStyle=1;align=center;verticalAlign=top;childLayout=stackLayout;horizontal=1;startSize=26;horizontalStack=0;resizeParent=1;resizeParentMax=0;resizeLast=0;collapsible=1;marginBottom=0;" parent="WIyWlLk6GJQsqaUBKTNV-1" vertex="1"><mxGeometry x="720" y="470" width="220" height="190" as="geometry"/></mxCell><mxCell id="1VhzgwtZWoN1v7OgEvMc-50" value="- map&lt;int, Estafeta&gt; estafetas&#10;- map&lt;int, Encomenda&gt; encomendas&#10;- map&lt;int, Expresso&gt; expresso;" style="text;strokeColor=none;fillColor=none;align=left;verticalAlign=top;spacingLeft=4;spacingRight=4;overflow=hidden;rotatable=0;points=[[0,0.5],[1,0.5]];portConstraint=eastwest;" parent="1VhzgwtZWoN1v7OgEvMc-49" vertex="1"><mxGeometry y="26" width="220" height="54" as="geometry"/></mxCell><mxCell id="1VhzgwtZWoN1v7OgEvMc-51" value="" style="line;strokeWidth=1;fillColor=none;align=left;verticalAlign=middle;spacingTop=-1;spacingLeft=3;spacingRight=3;rotatable=0;labelPosition=right;points=[];portConstraint=eastwest;" parent="1VhzgwtZWoN1v7OgEvMc-49" vertex="1"><mxGeometry y="80" width="220" height="8" as="geometry"/></mxCell><mxCell id="1VhzgwtZWoN1v7OgEvMc-52" value="- map&lt;int, Estafeta&gt; getestafetas&#10;- map&lt;int, Encomenda&gt; getpedidos&#10;- map&lt;int, Expresso&gt; getexpresso&#10;- void: setestafetas&#10;- void: setencomendas&#10;- void: setexpresso" style="text;strokeColor=none;fillColor=none;align=left;verticalAlign=top;spacingLeft=4;spacingRight=4;overflow=hidden;rotatable=0;points=[[0,0.5],[1,0.5]];portConstraint=eastwest;" parent="1VhzgwtZWoN1v7OgEvMc-49" vertex="1"><mxGeometry y="88" width="220" height="102" as="geometry"/></mxCell><mxCell id="1VhzgwtZWoN1v7OgEvMc-58" value="" style="endArrow=none;html=1;rounded=0;exitX=1;exitY=0.5;exitDx=0;exitDy=0;entryX=0.498;entryY=1.036;entryDx=0;entryDy=0;entryPerimeter=0;" parent="WIyWlLk6GJQsqaUBKTNV-1" target="1VhzgwtZWoN1v7OgEvMc-52" edge="1"><mxGeometry width="50" height="50" relative="1" as="geometry"><mxPoint x="590" y="965" as="sourcePoint"/><mxPoint x="780" y="962" as="targetPoint"/><Array as="points"><mxPoint x="830" y="965"/></Array></mxGeometry></mxCell><mxCell id="7" style="edgeStyle=orthogonalEdgeStyle;rounded=0;orthogonalLoop=1;jettySize=auto;html=1;exitX=1;exitY=0.5;exitDx=0;exitDy=0;entryX=0.5;entryY=0;entryDx=0;entryDy=0;endArrow=none;endFill=0;" edge="1" parent="WIyWlLk6GJQsqaUBKTNV-1" source="1VhzgwtZWoN1v7OgEvMc-11" target="1VhzgwtZWoN1v7OgEvMc-49"><mxGeometry relative="1" as="geometry"><mxPoint x="850" y="400" as="targetPoint"/></mxGeometry></mxCell></root></mxGraphModel></diagram></mxfile>